<?xml version="1.0" encoding="utf-8"?>
<svg viewBox="0 0 500 500" width="500" height="500" xmlns="http://www.w3.org/2000/svg">
  <defs>
    <linearGradient gradientUnits="userSpaceOnUse" x1="368.111" y1="-88.438" x2="368.111" y2="661.244" id="gradient-2" gradientTransform="matrix(-0.34287, -1.17309, 1.132442, -0.51617, 541.462076, 819.906758)">
      <stop offset="0" style="stop-color: rgb(0, 0, 255);"/>
      <stop offset="1" style="stop-color: rgba(5, 0, 0, 1)"/>
    </linearGradient>
    <linearGradient gradientUnits="userSpaceOnUse" x1="373.963" y1="-47.641" x2="373.963" y2="631.246" id="gradient-0" spreadMethod="pad" gradientTransform="matrix(0.879381, 0.557501, -0.154884, 0.322338, -84.379355, 270.620289)">
      <stop offset="0" style="stop-color: rgba(233, 12, 4, 1)"/>
      <stop offset="1" style="stop-color: rgb(0, 11, 223);"/>
    </linearGradient>
  </defs>
  <g transform="matrix(0.831824, 0, 0, 0.666105, -55.802742, 59.52977)" style="">
    <rect x="67.2" y="-88.438" width="601.822" height="749.682" style="fill: url(#gradient-2);"/>
    <path d="M 236.937 92.335 C 236.937 122.874 239.574 150.868 242.208 181.413 C 244.843 232.315 250.115 280.668 229.03 329.026 C 160.516 486.821 337.074 446.098 342.346 428.281 C 352.889 387.56 366.062 133.054 352.889 99.976 C 344.982 99.976 326.538 99.976 300.182 130.515 C 310.724 84.703 321.262 41.437 373.969 -47.641 C 426.675 41.437 437.212 84.696 445.119 130.515 C 418.768 99.976 402.955 99.976 395.048 99.976 C 381.87 133.061 395.048 387.559 405.59 428.281 C 410.861 446.1 587.42 486.815 518.905 329.026 C 497.826 280.669 503.092 232.317 505.727 181.413 C 508.363 150.873 511 122.879 511 92.335 C 566.342 194.135 608.501 250.129 605.866 303.569 C 571.607 234.853 550.524 229.763 539.985 229.763 C 526.808 288.296 550.527 311.205 563.7 351.931 C 597.958 448.64 529.443 484.268 413.493 514.81 C 402.951 514.81 405.587 519.9 405.587 532.628 C 424.037 545.355 434.573 552.986 434.573 560.622 C 434.573 570.804 397.68 583.525 424.031 621.701 C 408.217 634.428 339.702 634.428 323.894 621.701 C 350.244 583.525 313.351 570.799 313.351 560.622 C 313.351 552.986 323.894 545.35 342.337 532.628 C 342.337 519.902 342.337 514.81 334.43 514.81 C 218.48 484.27 149.96 448.64 184.224 351.931 C 197.401 311.21 221.116 288.306 207.939 229.763 C 197.397 229.763 176.317 234.853 142.059 303.569 C 139.424 250.121 181.587 194.132 236.925 92.335 L 236.937 92.335 Z M 239.574 234.852 C 234.301 224.67 221.123 214.494 213.223 217.034 L 231.672 110.143 C 234.306 150.865 239.578 194.131 239.578 234.847 L 239.574 234.852 Z M 539.986 219.58 C 555.8 214.49 582.152 242.483 597.96 273.028 C 584.782 222.126 545.254 158.501 518.903 112.685 L 539.981 219.576 L 539.986 219.58 Z M 376.6 89.791 C 397.679 89.791 413.492 89.791 437.207 107.609 C 424.031 56.707 405.585 13.445 376.6 -32.372 L 376.6 89.796 L 376.6 89.791 Z M 384.507 626.795 C 376.6 611.523 402.956 606.437 389.777 591.165 C 366.063 560.626 379.235 555.535 400.319 555.535 C 405.592 555.535 429.304 555.535 429.304 560.626 C 429.304 570.807 395.047 580.983 418.763 621.705 C 410.857 624.251 397.685 626.796 384.506 626.796 L 384.507 626.795 Z" fill-rule="evenodd" style="paint-order: stroke; fill-rule: evenodd; fill: url(#gradient-0); vector-effect: non-scaling-stroke; stroke-linejoin: round; stroke-width: 50px;"/>
  </g>
</svg>